<?xml version="1.0" standalone="no"?>
<!DOCTYPE svg PUBLIC "-//W3C//DTD SVG 20010904//EN"
 "http://www.w3.org/TR/2001/REC-SVG-20010904/DTD/svg10.dtd">
<svg version="1.0" xmlns="http://www.w3.org/2000/svg"
 width="512.000000pt" height="512.000000pt" viewBox="0 0 512.000000 512.000000"
 preserveAspectRatio="xMidYMid meet">

<g transform="translate(0.000000,512.000000) scale(0.100000,-0.100000)"
fill="#4381A6" stroke="none">
<path d="M753 4667 l-453 -452 0 -2080 c1 -1619 3 -2084 13 -2096 7 -9 22 -21
34 -27 16 -9 494 -12 1913 -12 2019 0 1936 -2 1954 45 3 9 6 444 6 966 l0 949
-85 0 -85 0 0 -895 0 -895 -1790 0 -1790 0 0 1965 0 1965 400 0 401 0 24 25
25 24 0 401 0 400 1365 0 1365 0 0 -725 0 -725 85 0 85 0 0 779 c0 429 -3 787
-6 796 -18 47 34 45 -1536 45 l-1473 0 -452 -453z m397 -122 l0 -275 -277 0
-278 0 275 275 c151 151 276 275 277 275 2 0 3 -124 3 -275z"/>
<path d="M775 3828 c-47 -25 -45 18 -45 -1094 0 -579 3 -1060 6 -1069 18 -45
20 -45 794 -45 l730 0 0 85 0 85 -680 0 -680 0 0 198 0 197 401 365 c220 201
412 374 426 384 l25 19 367 -367 c329 -329 370 -366 399 -366 27 0 69 31 270
198 233 195 238 198 262 183 22 -15 24 -14 77 44 29 33 52 63 50 66 -1 4 -26
27 -56 53 -93 78 -88 80 -363 -149 l-233 -194 -360 359 c-198 197 -373 364
-388 369 -20 8 -36 7 -57 -2 -15 -6 -194 -163 -396 -347 -202 -184 -380 -345
-396 -358 l-28 -24 0 626 0 626 1365 0 1365 0 0 -255 0 -255 85 0 86 0 -3 316
-3 316 -28 24 -28 24 -1472 0 c-1046 -1 -1478 -4 -1492 -12z"/>
<path d="M2532 3489 c-182 -36 -304 -229 -258 -411 66 -258 379 -346 567 -159
76 77 103 146 97 256 -5 95 -36 163 -100 226 -51 49 -96 73 -166 88 -59 12
-78 12 -140 0z m162 -188 c99 -62 101 -212 3 -285 -41 -30 -126 -34 -174 -7
-124 70 -117 242 11 303 49 22 112 18 160 -11z"/>
<path d="M4457 3483 c-37 -13 -164 -109 -533 -404 -266 -213 -528 -424 -581
-470 -418 -355 -784 -781 -1059 -1231 -64 -106 -86 -134 -105 -136 -150 -15
-203 -46 -383 -222 -173 -168 -176 -170 -327 -170 -89 0 -97 -2 -119 -25 -35
-37 -31 -79 14 -154 219 -360 688 -437 1007 -164 126 107 189 216 189 328 0
41 0 41 98 100 441 267 866 621 1198 997 139 157 902 1112 932 1166 59 104 33
243 -60 326 -79 72 -172 92 -271 59z m153 -182 c32 -23 47 -74 33 -110 -12
-34 -775 -988 -918 -1149 -57 -65 -149 -162 -204 -217 l-101 -100 -184 184
-185 184 40 46 c100 115 355 335 844 729 292 235 546 435 565 445 39 20 71 16
110 -12z m-1498 -1518 l177 -178 -96 -80 c-179 -148 -356 -276 -553 -401
l-115 -73 -75 74 -75 75 19 32 c47 81 213 328 283 421 93 124 244 307 252 307
3 0 86 -80 183 -177z m-827 -746 c58 -32 97 -94 103 -162 7 -84 -16 -131 -100
-210 -182 -172 -422 -200 -620 -72 -29 19 -64 46 -77 60 -26 29 -25 31 44 42
71 12 118 46 271 196 127 124 158 150 200 163 60 19 124 13 179 -17z"/>
<path d="M1497 2482 l-127 -127 60 -60 60 -60 128 128 127 127 -60 60 -60 60
-128 -128z"/>
</g>
</svg>
