<svg xmlns="http://www.w3.org/2000/svg" fill="#fff" xml:space="preserve" class="injected-svg svg" style="enable-background:new 0 0 372.1 372.1" viewBox="0 0 372.1 372.1"><path d="M348.3 46.4h-61V35.8c0-7-5.4-12.4-12.3-12.4s-12.3 5.5-12.3 12.4v10.6H111.6V35.8c0-7-5.4-12.4-12.3-12.4S87 28.9 87 35.8v10.6H23.8c-6.9 0-12.3 5.5-12.3 12.4v277.8c0 6.7 5.7 12.1 12.3 12.1h324.4c6.9 0 12.3-5.5 12.3-12.4V58.8c.1-7-5.3-12.4-12.2-12.4zm-12.4 277.8H36.1V128.3h299.8v195.9zm.3-220.8H36.1V71.2H87v6.7c0 7 5.4 12.4 12.3 12.4s12.3-5.5 12.3-12.4v-6.7h150.9v6.7c0 7 5.4 12.4 12.3 12.4s12.3-5.5 12.3-12.4v-6.7h49v32.2zM97.5 210.1h177.4c6.9 0 12.3-5.5 12.3-12.4 0-7-5.4-12.4-12.3-12.4H97.5c-6.9 0-12.3 5.5-12.3 12.4 0 7 5.4 12.4 12.3 12.4zm0 60.1h88.7c6.9 0 12.3-5.5 12.3-12.4 0-7-5.4-12.4-12.3-12.4H97.5c-6.9 0-12.3 5.5-12.3 12.4s5.4 12.4 12.3 12.4z"/></svg>