<?xml version="1.0" encoding="UTF-8"?>
<!DOCTYPE svg PUBLIC "-//W3C//DTD SVG 1.1//EN" "http://www.w3.org/Graphics/SVG/1.1/DTD/svg11.dtd">
<!-- Creator: CorelDRAW 2021 (64-Bit) -->
<svg xmlns="http://www.w3.org/2000/svg" xml:space="preserve" width="613px" height="468px" version="1.1" style="shape-rendering:geometricPrecision; text-rendering:geometricPrecision; image-rendering:optimizeQuality; fill-rule:evenodd; clip-rule:evenodd"
viewBox="0 0 61300 46781"
 xmlns:xlink="http://www.w3.org/1999/xlink"
 xmlns:xodm="http://www.corel.com/coreldraw/odm/2003">
 <defs>
  <style type="text/css">
   <![CDATA[
    .fil0 {fill:#4381A6;fill-rule:nonzero}
   ]]>
  </style>
 </defs>
 <g id="Capa_x0020_1">
  <metadata id="CorelCorpID_0Corel-Layer"/>
  <g id="_2462842653632">
   <g>
    <path class="fil0" d="M1325 145c-460,159 -841,508 -1110,992l-238 428 -24 15861c-16,15798 -16,15861 143,16123 190,317 610,507 943,444 135,-32 349,-175 484,-325l238 -270 0 -12007 0 -12015 28828 0 28827 0 0 17709c0,13665 -24,17733 -95,17804 -135,135 -57330,135 -57465,0 -71,-71 -95,-1078 -95,-4052l0 -3957 -270 -270c-230,-230 -325,-270 -626,-270 -405,0 -698,191 -841,540 -71,158 -87,1316 -71,4298l24 4084 238 428c277,500 650,833 1142,1000 317,103 3537,119 29232,119 32562,0 29319,71 30025,-635 690,-690 626,1507 626,-22760 0,-24276 64,-22071 -626,-22761 -682,-682 -8,-642 -9787,-619l-8620 24 -206 206c-230,238 -326,714 -199,1039 48,127 199,294 341,381 254,158 405,158 8676,158 6432,0 8431,24 8502,96 71,71 95,816 95,2855l0 2759 -28827 0 -28828 0 0 -2759c0,-2039 24,-2784 95,-2855 72,-72 4291,-96 18518,-96l18415 0 277 -245c484,-421 437,-1127 -103,-1444 -214,-127 -1427,-135 -18779,-127 -15885,0 -18590,24 -18859,119l0 0z"/>
    <path class="fil0" d="M21230 13572c-753,214 -1411,610 -1966,1189 -889,920 -1301,2007 -1222,3260 103,1625 1000,2950 2475,3664 1245,594 2538,579 3838,-64 1174,-579 2110,-1856 2316,-3180 119,-714 55,-1047 -254,-1340l-238 -230 -1998 -24c-1983,-24 -2007,-24 -2276,159 -175,119 -318,301 -389,507 -95,286 -95,349 32,611 222,476 412,531 1863,531 889,0 1269,24 1269,87 0,373 -856,1190 -1451,1388 -1245,413 -2554,-135 -3125,-1300 -301,-611 -309,-1515 -23,-2118 539,-1102 1641,-1634 2926,-1388 468,88 563,80 777,-31 349,-175 500,-421 500,-817 0,-492 -294,-793 -912,-944 -635,-143 -1555,-135 -2141,40l-1 0z"/>
    <path class="fil0" d="M38987 13691c-167,166 -270,349 -270,475l0 207 -5829 0c-6304,0 -6122,-8 -6415,412 -215,301 -167,817 103,1110l230 262 5956 24 5955 16 0 206c0,127 103,309 270,476 222,222 333,269 603,269 325,0 380,-39 1102,-753 746,-730 761,-754 761,-1110 0,-357 -15,-381 -761,-1111 -722,-713 -777,-753 -1102,-753 -270,0 -381,48 -603,270l0 0z"/>
    <path class="fil0" d="M28606 17727c-714,238 -1142,595 -1475,1245 -254,484 -262,1380 -24,1912 365,785 1079,1261 1983,1324 483,32 634,8 991,-159 579,-261 872,-523 1134,-1015 785,-1443 -190,-3235 -1832,-3370 -277,-24 -587,8 -777,63l0 0zm975 1943c230,294 0,730 -388,730 -230,0 -468,-246 -468,-484 0,-79 95,-214 214,-301 222,-183 468,-159 642,55z"/>
    <path class="fil0" d="M33523 17727c-738,246 -1190,635 -1467,1269 -397,888 -254,1769 380,2451 492,531 881,713 1571,761 483,32 634,8 991,-159 579,-261 872,-523 1134,-1015 619,-1134 166,-2545 -999,-3140 -468,-238 -1174,-310 -1610,-167l0 0zm975 1943c349,452 -293,976 -698,571 -214,-214 -198,-365 40,-602 214,-215 468,-207 658,31l0 0z"/>
    <path class="fil0" d="M38360 17759c-785,285 -1292,817 -1514,1594 -222,761 -32,1507 539,2133 460,484 856,674 1539,722 491,32 626,8 1031,-174 610,-278 919,-587 1181,-1182 191,-412 214,-547 182,-1039 -47,-682 -237,-1079 -721,-1539 -642,-586 -1483,-777 -2237,-515l0 0zm1055 1911c349,452 -293,976 -698,571 -214,-214 -198,-365 40,-602 214,-215 468,-207 658,31l0 0z"/>
    <path class="fil0" d="M12507 24238c-730,230 -1317,730 -1642,1380 -166,349 -182,484 -206,2046 -24,1539 -8,1705 143,2118 206,539 690,1070 1277,1380l428 222 7796 23c8565,24 8121,48 8382,-460 151,-293 151,-578 0,-872 -261,-500 159,-476 -8168,-476l-7590 0 -230 -230 -230 -230 0 -1356c0,-1308 8,-1356 191,-1570l190 -222 15036 -24 15037 -16 0 1824 0 1824 -5552 0c-6098,0 -5892,-16 -6146,476 -151,293 -151,579 0,872 262,508 -246,484 9017,460l8430 -23 500 -270c499,-270 912,-690 1150,-1166 222,-444 317,-1261 277,-2514 -31,-991 -71,-1285 -214,-1657 -222,-579 -745,-1118 -1340,-1396l-452 -214 -17883 -16c-14268,-8 -17947,8 -18201,87l0 0zm36012 1975c183,214 191,262 191,1570l0 1356 -230 230 -230 230 -1713 0 -1713 0 0 -1832 0 -1824 1753 24 1752 24 190 222z"/>
    <path class="fil0" d="M19367 32843c-754,238 -1475,920 -1721,1618 -190,571 -175,1411 39,1895 238,547 809,1118 1365,1364l467 214 4069 -23 4068 -24 428 -238c1515,-833 1832,-2863 635,-4092 -214,-214 -555,-476 -761,-571 -373,-175 -445,-175 -4386,-191 -2205,-8 -4092,16 -4203,48l0 0zm8010 1959c412,412 317,1015 -207,1261 -230,111 -713,119 -3790,103 -3434,-24 -3529,-32 -3751,-190 -318,-238 -413,-651 -215,-992 270,-452 341,-460 4211,-444l3514 16 238 246z"/>
    <path class="fil0" d="M33515 32883c-500,158 -1039,571 -1340,1023 -912,1387 -325,3291 1197,3862 413,150 611,158 4378,158l3941 0 484 -230c587,-277 991,-682 1285,-1269 182,-380 214,-539 206,-1078 0,-460 -48,-738 -167,-1007 -222,-492 -761,-1063 -1253,-1317l-396 -214 -4005 -16c-3109,-16 -4076,8 -4330,88l0 0zm8033 1839c476,357 405,1047 -134,1325 -254,127 -571,135 -3823,119l-3545 -24 -238 -230c-190,-182 -246,-301 -246,-531 0,-341 294,-754 579,-809 96,-24 1753,-32 3680,-24 3426,8 3506,8 3728,174l-1 0z"/>
    <path class="fil0" d="M5203 41336c-87,32 -262,183 -381,326 -190,222 -214,309 -182,618 32,270 103,413 285,579l246 222 1372 0c1213,0 1396,-16 1618,-158 555,-341 484,-1222 -135,-1523 -230,-119 -484,-143 -1467,-135 -650,0 -1261,32 -1356,72l0 -1z"/>
    <path class="fil0" d="M10588 41368c-659,294 -714,1277 -88,1602 159,80 556,111 1563,111l1356 0 246 -222c190,-166 253,-309 285,-587 40,-333 16,-388 -238,-666l-277 -309 -1301 -16c-975,-16 -1356,8 -1546,87l0 0z"/>
   </g>
  </g>
 </g>
</svg>
