<?xml version="1.0" encoding="UTF-8"?>
<!DOCTYPE svg PUBLIC "-//W3C//DTD SVG 1.1//EN" "http://www.w3.org/Graphics/SVG/1.1/DTD/svg11.dtd">
<!-- Creator: CorelDRAW 2021 (64-Bit) -->
<svg xmlns="http://www.w3.org/2000/svg" xml:space="preserve" width="739px" height="71px" version="1.1" style="shape-rendering:geometricPrecision; text-rendering:geometricPrecision; image-rendering:optimizeQuality; fill-rule:evenodd; clip-rule:evenodd"
viewBox="0 0 73900 7129"
 xmlns:xlink="http://www.w3.org/1999/xlink"
 xmlns:xodm="http://www.corel.com/coreldraw/odm/2003">
 <defs>
  <style type="text/css">
   <![CDATA[
    .fil1 {fill:#1AAEE4;fill-rule:nonzero}
    .fil0 {fill:white;fill-rule:nonzero}
   ]]>
  </style>
 </defs>
 <g id="Capa_x0020_1">
  <metadata id="CorelCorpID_0Corel-Layer"/>
  <g id="_1345649635840">
   <path class="fil0" d="M5212 2215c-159,-293 -379,-516 -659,-669 -280,-153 -606,-230 -979,-230 -414,0 -780,93 -1100,280 -320,186 -569,453 -749,799 -180,347 -270,746 -270,1199 0,467 92,873 275,1220 183,346 438,613 764,799 327,187 706,280 1140,280 532,0 969,-142 1309,-425 339,-283 563,-678 669,-1184l-2398 0 0 -1069 3777 0 0 1219c-93,486 -293,936 -599,1349 -307,413 -702,744 -1185,994 -483,250 -1024,375 -1624,375 -672,0 -1280,-152 -1823,-455 -543,-303 -970,-724 -1279,-1264 -310,-540 -465,-1152 -465,-1839 0,-686 155,-1300 465,-1843 309,-543 736,-966 1279,-1270 543,-303 1147,-454 1814,-454 786,0 1469,191 2048,574 580,383 980,921 1199,1614l-1609 0zm6416 4877l-1539 -2718 -659 0 0 2718 -1399 0 0 -6975 2618 0c540,0 999,95 1379,284 380,190 664,447 854,770 190,323 285,684 285,1084 0,460 -133,875 -400,1244 -266,370 -662,625 -1189,765l1669 2828 -1619 0zm-2198 -3767l1169 0c380,0 663,-92 849,-275 187,-183 280,-438 280,-765 0,-320 -93,-568 -280,-744 -186,-177 -469,-265 -849,-265l-1169 0 0 2049zm9284 2438l-2779 0 -459 1329 -1469 0 2508 -6985 1629 0 2508 6985 -1479 0 -459 -1329zm-380 -1119l-1009 -2918 -1010 2918 2019 0zm8344 -2369c0,373 -88,723 -264,1050 -177,326 -453,589 -830,789 -376,200 -851,300 -1424,300l-1169 0 0 2678 -1399 0 0 -6975 2568 0c540,0 999,93 1379,279 380,187 665,444 855,770 189,326 284,696 284,1109zm-2578 1010c387,0 673,-89 860,-265 186,-177 279,-425 279,-745 0,-679 -379,-1019 -1139,-1019l-1109 0 0 2029 1109 0zm9354 -3168l0 6975 -1399 0 0 -2968 -2988 0 0 2968 -1399 0 0 -6975 1399 0 0 2868 2988 0 0 -2868 1399 0zm2778 0l0 6975 -1399 0 0 -6975 1399 0zm1039 3477c0,-686 155,-1300 465,-1843 310,-543 733,-966 1269,-1270 537,-303 1138,-454 1804,-454 780,0 1462,200 2049,599 586,400 996,953 1229,1659l-1609 0c-160,-333 -385,-583 -675,-749 -289,-167 -624,-250 -1004,-250 -406,0 -768,95 -1084,285 -317,190 -563,458 -740,804 -176,347 -265,753 -265,1219 0,460 89,865 265,1215 177,349 423,619 740,809 316,190 678,285 1084,285 380,0 715,-85 1004,-255 290,-170 515,-421 675,-755l1609 0c-233,713 -641,1268 -1224,1664 -583,397 -1268,595 -2054,595 -666,0 -1267,-152 -1804,-455 -536,-303 -959,-724 -1269,-1264 -310,-540 -465,-1152 -465,-1839z"/>
   <path class="fil1" d="M46685 5983l2299 0 0 1109 -3698 0 0 -6975 1399 0 0 5866zm7465 -220l-2778 0 -460 1329 -1469 0 2509 -6985 1629 0 2508 6985 -1479 0 -460 -1329zm-379 -1119l-1010 -2918 -1009 2918 2019 0zm8804 -4527l-2359 4547 0 2428 -1399 0 0 -2428 -2368 -4547 1579 0 1499 3188 1489 -3188 1559 0zm2208 1129l0 1749 2349 0 0 1109 -2349 0 0 1849 2649 0 0 1139 -4048 0 0 -6985 4048 0 0 1139 -2649 0zm7515 5846l-1539 -2718 -659 0 0 2718 -1399 0 0 -6975 2618 0c540,0 999,95 1379,284 380,190 665,447 855,770 190,323 284,684 284,1084 0,460 -133,875 -399,1244 -267,370 -663,625 -1190,765l1669 2828 -1619 0zm-2198 -3767l1169 0c380,0 663,-92 850,-275 186,-183 279,-438 279,-765 0,-320 -93,-568 -279,-744 -187,-177 -470,-265 -850,-265l-1169 0 0 2049z"/>
  </g>
 </g>
</svg>
