<?xml version="1.0" encoding="UTF-8"?>
<!DOCTYPE svg PUBLIC "-//W3C//DTD SVG 1.1//EN" "http://www.w3.org/Graphics/SVG/1.1/DTD/svg11.dtd">
<!-- Creator: CorelDRAW 2021 (64-Bit) -->
<svg xmlns="http://www.w3.org/2000/svg" xml:space="preserve" width="856px" height="92px" version="1.1" style="shape-rendering:geometricPrecision; text-rendering:geometricPrecision; image-rendering:optimizeQuality; fill-rule:evenodd; clip-rule:evenodd"
viewBox="0 0 85600 9217"
 xmlns:xlink="http://www.w3.org/1999/xlink"
 xmlns:xodm="http://www.corel.com/coreldraw/odm/2003">
 <defs>
  <style type="text/css">
   <![CDATA[
    .fil1 {fill:#1AAEE4;fill-rule:nonzero}
    .fil0 {fill:white;fill-rule:nonzero}
   ]]>
  </style>
 </defs>
 <g id="Capa_x0020_1">
  <metadata id="CorelCorpID_0Corel-Layer"/>
  <g id="_1639368817888">
   <path class="fil0" d="M5639 3203c-160,-294 -380,-517 -661,-671 -280,-153 -606,-230 -980,-230 -414,0 -780,94 -1101,280 -320,187 -570,454 -750,801 -180,347 -270,747 -270,1200 0,467 92,874 275,1221 184,347 439,614 766,800 326,187 707,281 1140,281 534,0 970,-142 1311,-426 340,-283 563,-678 670,-1185l-2401 0 0 -1071 3782 0 0 1221c-94,487 -294,937 -601,1351 -306,413 -702,745 -1185,995 -484,250 -1026,375 -1626,375 -674,0 -1282,-152 -1826,-455 -543,-304 -970,-725 -1281,-1266 -310,-540 -465,-1154 -465,-1841 0,-687 155,-1302 465,-1846 311,-543 738,-967 1281,-1270 544,-304 1149,-455 1816,-455 787,0 1471,191 2051,575 580,383 981,922 1201,1616l-1611 0zm6423 4882l-1541 -2721 -660 0 0 2721 -1401 0 0 -6983 2621 0c541,0 1001,95 1381,285 380,190 665,447 856,770 190,324 285,686 285,1086 0,460 -134,875 -401,1245 -266,371 -663,626 -1190,766l1671 2831 -1621 0zm-2201 -3772l1170 0c381,0 664,-91 851,-275 187,-183 280,-438 280,-765 0,-320 -93,-569 -280,-746 -187,-176 -470,-265 -851,-265l-1170 0 0 2051zm9294 2441l-2781 0 -460 1331 -1471 0 2511 -6993 1631 0 2511 6993 -1480 0 -461 -1331zm-380 -1120l-1010 -2921 -1011 2921 2021 0zm8354 -2371c0,373 -88,723 -265,1050 -177,327 -453,591 -830,791 -377,200 -852,300 -1426,300l-1171 0 0 2681 -1400 0 0 -6983 2571 0c540,0 1001,93 1381,280 380,187 665,443 855,770 190,327 285,697 285,1111zm-2581 1010c387,0 674,-88 860,-265 187,-177 281,-425 281,-745 0,-681 -381,-1021 -1141,-1021l-1111 0 0 2031 1111 0zm9365 -3171l0 6983 -1401 0 0 -2971 -2992 0 0 2971 -1400 0 0 -6983 1400 0 0 2871 2992 0 0 -2871 1401 0zm2781 0l0 6983 -1401 0 0 -6983 1401 0zm1040 3481c0,-687 155,-1302 466,-1846 310,-543 733,-967 1270,-1270 537,-304 1139,-455 1806,-455 780,0 1464,200 2051,600 587,400 997,954 1231,1661l-1611 0c-160,-334 -385,-584 -675,-751 -291,-166 -626,-250 -1006,-250 -407,0 -769,95 -1086,285 -316,190 -563,459 -740,806 -177,347 -265,753 -265,1220 0,461 88,866 265,1216 177,350 424,620 740,810 317,190 679,286 1086,286 380,0 715,-86 1006,-256 290,-170 515,-422 675,-755l1611 0c-234,714 -642,1269 -1226,1666 -584,397 -1269,595 -2056,595 -667,0 -1269,-152 -1806,-455 -537,-304 -960,-725 -1270,-1266 -311,-540 -466,-1154 -466,-1841z"/>
   <path class="fil1" d="M47159 6975l2301 0 0 1110 -3702 0 0 -6983 1401 0 0 5873zm7473 -221l-2781 0 -460 1331 -1471 0 2511 -6993 1631 0 2511 6993 -1480 0 -461 -1331zm-380 -1120l-1010 -2921 -1011 2921 2021 0zm12596 -4532l-1951 6983 -1650 0 -1311 -4972 -1371 4972 -1640 10 -1881 -6993 1500 0 1231 5422 1421 -5422 1560 0 1341 5392 1241 -5392 1510 0zm6463 0l-2361 4552 0 2431 -1400 0 0 -2431 -2371 -4552 1580 0 1501 3191 1491 -3191 1560 0zm2212 1130l0 1751 2351 0 0 1111 -2351 0 0 1851 2651 0 0 1140 -4052 0 0 -6993 4052 0 0 1140 -2651 0zm7523 5853l-1541 -2721 -660 0 0 2721 -1401 0 0 -6983 2622 0c540,0 1000,95 1380,285 381,190 666,447 856,770 190,324 285,686 285,1086 0,460 -133,875 -400,1245 -267,371 -664,626 -1191,766l1671 2831 -1621 0zm-2201 -3772l1171 0c380,0 663,-91 850,-275 187,-183 280,-438 280,-765 0,-320 -93,-569 -280,-746 -187,-176 -470,-265 -850,-265l-1171 0 0 2051z"/>
  </g>
 </g>
</svg>
