<?xml version="1.0" encoding="UTF-8"?>
<!DOCTYPE svg PUBLIC "-//W3C//DTD SVG 1.1//EN" "http://www.w3.org/Graphics/SVG/1.1/DTD/svg11.dtd">
<!-- Creator: CorelDRAW 2021 (64-Bit) -->
<svg xmlns="http://www.w3.org/2000/svg" xml:space="preserve" width="778px" height="101px" version="1.1" style="shape-rendering:geometricPrecision; text-rendering:geometricPrecision; image-rendering:optimizeQuality; fill-rule:evenodd; clip-rule:evenodd"
viewBox="0 0 77800 10124"
 xmlns:xlink="http://www.w3.org/1999/xlink"
 xmlns:xodm="http://www.corel.com/coreldraw/odm/2003">
 <defs>
  <style type="text/css">
   <![CDATA[
    .fil1 {fill:#1AAEE4;fill-rule:nonzero}
    .fil0 {fill:white;fill-rule:nonzero}
   ]]>
  </style>
 </defs>
 <g id="Capa_x0020_1">
  <metadata id="CorelCorpID_0Corel-Layer"/>
  <g id="_1639221546080">
   <path class="fil0" d="M6924 4036c-160,-294 -380,-517 -660,-671 -280,-153 -607,-230 -980,-230 -414,0 -780,94 -1100,280 -320,187 -570,454 -750,801 -180,346 -270,746 -270,1200 0,466 91,873 275,1220 183,347 438,613 765,800 326,187 707,280 1140,280 533,0 970,-142 1310,-425 340,-283 564,-678 670,-1185l-2400 0 0 -1070 3780 0 0 1220c-93,487 -293,937 -600,1350 -306,413 -701,745 -1185,995 -483,250 -1025,375 -1625,375 -673,0 -1282,-151 -1825,-455 -544,-303 -971,-725 -1281,-1265 -310,-540 -465,-1154 -465,-1840 0,-687 155,-1302 465,-1846 310,-543 737,-966 1281,-1270 543,-303 1148,-455 1815,-455 787,0 1470,192 2050,575 580,384 980,922 1200,1616l-1610 0zm6421 4880l-1540 -2720 -660 0 0 2720 -1400 0 0 -6981 2620 0c540,0 1000,95 1380,285 380,190 665,447 855,770 191,324 285,685 285,1085 0,461 -133,876 -400,1246 -266,370 -663,625 -1190,765l1670 2830 -1620 0zm-2200 -3770l1170 0c380,0 664,-92 850,-275 187,-184 280,-439 280,-766 0,-320 -93,-568 -280,-745 -186,-176 -470,-265 -850,-265l-1170 0 0 2051zm9291 2440l-2780 0 -460 1330 -1470 0 2510 -6991 1630 0 2511 6991 -1481 0 -460 -1330zm-380 -1120l-1010 -2921 -1010 2921 2020 0zm8352 -2370c0,373 -88,723 -265,1050 -177,326 -454,590 -830,790 -377,200 -852,300 -1426,300l-1170 0 0 2680 -1400 0 0 -6981 2570 0c540,0 1001,94 1381,280 380,187 665,444 855,770 190,327 285,697 285,1111zm-2581 1010c387,0 674,-89 861,-265 186,-177 280,-425 280,-745 0,-681 -381,-1021 -1141,-1021l-1110 0 0 2031 1110 0zm9362 -3171l0 6981 -1400 0 0 -2970 -2991 0 0 2970 -1400 0 0 -6981 1400 0 0 2871 2991 0 0 -2871 1400 0zm2780 0l0 6981 -1400 0 0 -6981 1400 0zm1041 3481c0,-687 155,-1302 465,-1846 310,-543 733,-966 1270,-1270 537,-303 1138,-455 1805,-455 780,0 1464,200 2050,600 587,400 997,954 1231,1660l-1611 0c-160,-333 -385,-583 -675,-750 -290,-166 -625,-250 -1005,-250 -407,0 -768,95 -1085,285 -317,190 -563,459 -740,805 -177,347 -265,754 -265,1221 0,460 88,865 265,1215 177,350 423,620 740,810 317,190 678,285 1085,285 380,0 715,-85 1005,-255 290,-170 515,-422 675,-755l1611 0c-234,713 -642,1268 -1225,1665 -584,397 -1269,595 -2056,595 -667,0 -1268,-151 -1805,-455 -537,-303 -960,-725 -1270,-1265 -310,-540 -465,-1154 -465,-1840z"/>
   <path class="fil1" d="M48431 7806l2300 0 0 1110 -3700 0 0 -6981 1400 0 0 5871zm7471 -220l-2780 0 -460 1330 -1471 0 2511 -6991 1630 0 2511 6991 -1481 0 -460 -1330zm-380 -1120l-1010 -2921 -1010 2921 2020 0zm8812 -4531l-2361 4551 0 2430 -1400 0 0 -2430 -2370 -4551 1580 0 1500 3191 1490 -3191 1561 0zm2210 1130l0 1751 2350 0 0 1110 -2350 0 0 1850 2651 0 0 1140 -4051 0 0 -6991 4051 0 0 1140 -2651 0zm7521 5851l-1540 -2720 -660 0 0 2720 -1400 0 0 -6981 2620 0c540,0 1000,95 1380,285 380,190 666,447 856,770 190,324 285,685 285,1085 0,461 -134,876 -400,1246 -267,370 -664,625 -1191,765l1671 2830 -1621 0zm-2200 -3770l1170 0c380,0 664,-92 850,-275 187,-184 280,-439 280,-766 0,-320 -93,-568 -280,-745 -186,-176 -470,-265 -850,-265l-1170 0 0 2051z"/>
  </g>
 </g>
</svg>
