<?xml version="1.0" encoding="UTF-8"?>
<!DOCTYPE svg PUBLIC "-//W3C//DTD SVG 1.1//EN" "http://www.w3.org/Graphics/SVG/1.1/DTD/svg11.dtd">
<!-- Creator: CorelDRAW 2021 (64-Bit) -->
<svg xmlns="http://www.w3.org/2000/svg" xml:space="preserve" width="125px" height="125px" version="1.1" style="shape-rendering:geometricPrecision; text-rendering:geometricPrecision; image-rendering:optimizeQuality; fill-rule:evenodd; clip-rule:evenodd"
viewBox="0 0 12500 12500"
 xmlns:xlink="http://www.w3.org/1999/xlink"
 xmlns:xodm="http://www.corel.com/coreldraw/odm/2003">
 <defs>
  <style type="text/css">
   <![CDATA[
    .str0 {stroke:#fff;stroke-width:199;stroke-miterlimit:22.9256}
    .fil0 {fill:none}
    .fil1 {fill:#fff}
    .fil2 {fill:#fff;fill-rule:nonzero}
   ]]>
  </style>
 </defs>
 <g id="Capa_x0020_1">
  <metadata id="CorelCorpID_0Corel-Layer"/>
  <path class="fil0 str0" d="M1906 6166c0,851 94,1201 394,1929 51,123 118,236 179,343 144,253 363,551 560,754l260 261c241,224 465,393 752,562 730,429 1419,579 2283,579l16 0c346,-2 615,-61 906,-122 122,-25 276,-77 402,-120 235,-80 499,-209 712,-331 252,-144 550,-363 754,-559 51,-50 89,-72 143,-126 241,-241 507,-593 679,-887 427,-727 580,-1423 580,-2283l0 -16c-2,-346 -62,-615 -122,-905 -27,-131 -76,-272 -120,-402 -47,-138 -99,-240 -153,-370 -161,-390 -554,-931 -864,-1240 -308,-309 -838,-693 -1228,-859 -241,-103 -488,-214 -770,-275 -333,-72 -646,-115 -954,-125l-269 0c-416,14 -828,91 -1272,242 -236,80 -499,210 -712,332 -549,314 -1002,744 -1372,1254 -471,651 -784,1551 -784,2364z"/>
  <path class="fil1" d="M3135 4264c129,0 258,0 387,0l734 -41c297,-47 283,205 180,264 -64,37 -406,56 -493,63l1347 4007c22,-26 17,-19 32,-52l147 -443c59,-176 109,-328 168,-505l421 -1262c41,-123 69,-135 26,-248l-542 -1497c-83,-7 -396,-30 -452,-53 -113,-47 -116,-265 67,-283 73,-7 137,16 234,16 107,0 140,18 252,18 205,-2 619,36 816,6 59,-9 436,-13 604,-37 116,-16 214,22 214,148 0,182 -280,162 -556,185l663 1981c74,222 625,1814 667,1992 22,-25 17,-19 32,-52l302 -1010c156,-487 213,-566 313,-1102 33,-175 14,-483 -20,-634 -178,-782 -835,-1174 -565,-1803 35,-82 78,-126 136,-184 123,-124 263,-181 458,-181l-224 -197c-88,-72 -165,-113 -257,-181 -120,-88 -416,-239 -560,-298l-307 -113c-1240,-452 -2799,-56 -3689,835 -52,52 -92,92 -144,143 -61,61 -87,98 -143,160 -62,70 -227,270 -248,358z"/>
  <path class="fil1" d="M5172 9837c752,175 1211,217 1980,27 100,-25 197,-70 293,-78l-142 -397c-291,-752 -579,-1596 -866,-2366 -27,-72 -48,-125 -72,-198 -21,-64 -59,-130 -65,-204l-34 0c-27,119 -91,293 -132,406l-417 1200c-92,278 -184,534 -273,804l-207 601c-22,58 -59,129 -65,205z"/>
  <path class="fil1" d="M2512 6251c0,737 230,1543 633,2094 52,72 85,130 139,198 401,501 748,775 1316,1075 -6,-63 -77,-243 -101,-303 -38,-95 -73,-194 -108,-297 -127,-377 -313,-827 -442,-1208l-220 -605c-79,-202 -148,-408 -221,-603l-329 -900c-38,-110 -71,-210 -111,-310l-219 -606c-44,32 -55,82 -77,142 -24,62 -39,101 -60,159 -111,305 -200,814 -200,1164z"/>
  <path class="fil1" d="M8085 9466c69,-16 330,-202 399,-257 231,-187 383,-338 581,-564 236,-270 366,-523 518,-829 323,-651 417,-1589 256,-2293 -32,-138 -58,-229 -95,-360l-248 -593c-12,-16 -22,-26 -31,-37 0,320 46,336 -14,744 -89,613 -450,1483 -657,2104 -35,102 -67,207 -101,303 -35,96 -69,190 -101,286l-308 888c-38,117 -192,516 -199,608z"/>
  <polygon class="fil1" points="8085,9466 8068,9466 8082,9486 "/>
  <g id="_1186787380944">
   <g>
    <path class="fil2" d="M6216 36c-3451,0 -6249,2798 -6249,6248 0,3451 2798,6249 6249,6249 3451,0 6249,-2798 6249,-6249 0,-3450 -2798,-6248 -6249,-6248zm-5467 6248c0,-1371 510,-2620 1347,-3581l7706 7707c-963,839 -2214,1354 -3586,1354 -3015,0 -5467,-2465 -5467,-5480zm9603 3571l-7706 -7704c959,-829 2205,-1334 3570,-1334 3015,0 5468,2454 5468,5469 0,1360 -505,2609 -1332,3569z"/>
   </g>
  </g>
 </g>
</svg>
