<?xml version="1.0" encoding="UTF-8"?>
<!DOCTYPE svg PUBLIC "-//W3C//DTD SVG 1.1//EN" "http://www.w3.org/Graphics/SVG/1.1/DTD/svg11.dtd">
<!-- Creator: CorelDRAW 2021 (64-Bit) -->
<svg xmlns="http://www.w3.org/2000/svg" xml:space="preserve" width="1500px" height="591px" version="1.1" style="shape-rendering:geometricPrecision; text-rendering:geometricPrecision; image-rendering:optimizeQuality; fill-rule:evenodd; clip-rule:evenodd"
viewBox="0 0 150000 59055"
 xmlns:xlink="http://www.w3.org/1999/xlink"
 xmlns:xodm="http://www.corel.com/coreldraw/odm/2003">
 <defs>
  <style type="text/css">
   <![CDATA[
    .fil7 {fill:none}
    .fil3 {fill:#4381A6}
    .fil0 {fill:#4381A6}
    .fil5 {fill:#4381A6}
    .fil1 {fill:#4381A6}
    .fil6 {fill:#4381A6}
    .fil4 {fill:#4381A6}
    .fil2 {fill:white}
   ]]>
  </style>
       <clipPath id="id0">
        <path d="M69985 55288l0 -35216 -55162 0 0 35216 55162 0z"/>
       </clipPath>
       <clipPath id="id1">
        <path d="M117227 54971l0 -47306 -55161 0 0 47306 55161 0z"/>
       </clipPath>
       <clipPath id="id2">
        <path d="M98993 7071l0 46403 42729 0 0 -46403 -42729 0z"/>
       </clipPath>
       <clipPath id="id3">
        <path d="M5961 47439l30199 0 0 -19731 -30199 0 0 19731z"/>
       </clipPath>
 </defs>
 <g id="Capa_x0020_1">
  <metadata id="CorelCorpID_0Corel-Layer"/>
  <g id="_1360557629696">
   <g id="g10">
    <g id="g12">
     <g id="g14">
      <g>
      </g>
      <g style="clip-path:url(#id0)">
       <g>
        <path id="path22" class="fil0" d="M9771 45515l-4739 0 0 -24858c0,-323 -252,-585 -574,-585l-40698 0c-322,0 -593,262 -593,585l0 24858 -5027 0c-96,0 -184,79 -184,175l0 220c0,96 88,174 184,174l51631 0c97,0 166,-78 166,-174l0 -220c0,-96 -69,-175 -166,-175z"/>
        <path id="path24" class="fil0" d="M-35116 47223l38406 0c5242,0 6656,-963 6656,-963l-51718 0c0,0 1414,963 6656,963z"/>
        <path id="path26" class="fil1" d="M-16044 20598c217,0 394,176 394,395 0,217 -177,393 -394,393 -218,0 -395,-176 -395,-393 0,-219 177,-395 395,-395z"/>
        <polygon id="path28" class="fil2" points="-34612,43691 2523,43691 2523,22189 -34612,22189 "/>
        <path id="path30" class="fil3" d="M24923 47223l38406 0c5242,0 6656,-963 6656,-963l-51719 0c0,0 1414,963 6657,963z"/>
        <path id="path32" class="fil3" d="M62531 43676l-37136 0 0 -21502 37136 0 0 21502zm-18537 -23078c218,0 394,176 394,395 0,217 -176,393 -394,393 -218,0 -394,-176 -394,-393 0,-219 176,-395 394,-395zm25815 24917l-4738 0 0 -24858c0,-323 -252,-585 -574,-585l-40698 0c-323,0 -593,262 -593,585l0 24858 -5027 0c-97,0 -185,79 -185,175l0 220c0,96 88,174 185,174l51630 0c97,0 166,-78 166,-174l0 -220c0,-96 -69,-175 -166,-175z"/>
        <g>
         <path id="path34" class="fil0" d="M6859 62989l-45807 0c-362,0 -644,323 -644,686l0 27326c0,363 282,627 644,627l18800 0 0 3372 -1 0 -2403 2140c-87,29 -149,112 -149,208 0,121 99,221 221,221l12914 0c123,0 222,-105 222,-226 0,-57 -22,-109 -58,-153l21 0 -2491 -2160 0 -3402 18731 0c363,0 669,-264 669,-627l0 -27326c0,-363 -306,-686 -669,-686l0 0zm0 0l0 0 0 0z"/>
        </g>
        <polygon id="path36" class="fil2" points="-37840,89490 5777,89490 5777,65055 -37840,65055 "/>
        <g>
         <path id="path38" class="fil3" d="M66735 89482l-43617 0 0 -24436 43617 0 0 24436zm1082 -26493l-45806 0c-363,0 -645,326 -645,689l0 27326c0,363 282,624 645,624l18799 0 0 3372 -1 0 -2403 2141c-86,30 -149,114 -149,210 0,121 99,221 222,221l12914 0c122,0 221,-107 221,-228 0,-56 -22,-110 -58,-154l21 0 -2490 -2156 0 -3406 18730 0c363,0 669,-261 669,-624l0 -27326c0,-363 -306,-689 -669,-689l0 0zm0 0l0 0 0 0z"/>
        </g>
        <g>
         <path id="path40" class="fil0" d="M-25003 119700l17934 0c484,0 868,392 868,876l3 23853c0,484 -387,843 -871,843l-17934 -1c-484,0 -862,-349 -862,-833l4 -23862c0,-484 374,-876 858,-876l0 0zm0 0l0 0 0 0z"/>
        </g>
        <polygon id="path42" class="fil2" points="-23914,122064 -8150,122062 -8151,143171 -23914,143171 "/>
        <path id="path44" class="fil4" d="M-16032 120814c130,0 234,105 234,235 0,129 -104,234 -234,234 -129,0 -234,-105 -234,-234 0,-130 105,-235 234,-235z"/>
        <path id="path46" class="fil5" d="M-16032 143734c324,0 586,262 586,586 0,324 -262,586 -586,586 -323,0 -586,-262 -586,-586 0,-324 263,-586 586,-586z"/>
        <path id="path48" class="fil6" d="M-16134 144040l204 0c95,0 172,77 172,172l0 204c0,95 -77,172 -172,172l-204 0c-95,0 -172,-77 -172,-172l0 -204c0,-95 77,-172 172,-172z"/>
        <path id="path50" class="fil3" d="M52807 143171l-15763 0 0 -21107 15765 -2 -2 21109zm-7881 1735c-323,0 -586,-262 -586,-586 0,-324 263,-586 586,-586 324,0 586,262 586,586 0,324 -262,586 -586,586zm0 -24092c130,0 235,105 235,235 0,129 -105,234 -235,234 -129,0 -234,-105 -234,-234 0,-130 105,-235 234,-235zm9831 -239c0,-484 -384,-876 -867,-876l-17935 0c-484,0 -858,392 -858,876l-4 23863c0,483 378,833 862,833l17935 1c483,0 870,-359 870,-843l-3 -23854z"/>
        <path id="path52" class="fil3" d="M45233 144219c0,-95 -77,-172 -172,-172l-226 0c-94,0 -171,77 -171,172l0 226c0,94 77,171 171,171l226 0c95,0 172,-77 172,-171l0 -226z"/>
        <g>
         <path id="path54" class="fil0" d="M-18982 174309l5892 0c484,0 868,392 868,875l0 14478c0,483 -384,847 -868,847l-5892 0c-483,0 -860,-353 -860,-836l1 -14485c0,-483 376,-879 859,-879l0 0zm0 0l0 0 0 0z"/>
        </g>
        <path id="path56" class="fil5" d="M-16032 188620c271,0 491,220 491,491 0,271 -220,491 -491,491 -271,0 -490,-220 -490,-491 0,-271 219,-491 490,-491z"/>
        <path id="path58" class="fil6" d="M-16118 188877l172 0c79,0 144,64 144,144l0 171c0,79 -65,144 -144,144l-172 0c-79,0 -143,-65 -143,-144l0 -171c0,-80 64,-144 143,-144z"/>
        <g>
         <path id="path60" class="fil2" d="M-19361 176263l6653 -2 5 11608 -6658 -1 0 -11605 0 0zm0 0l0 0 0 0z"/>
        </g>
        <path id="path62" class="fil4" d="M-16720 175387l1376 0c54,0 97,40 97,94 0,53 -43,82 -97,82l-1376 0c-53,0 -97,-29 -97,-82 0,-54 44,-94 97,-94z"/>
        <path id="path64" class="fil4" d="M-16032 174707c54,0 97,43 97,96 0,54 -43,98 -97,98 -53,0 -97,-44 -97,-98 0,-53 44,-96 97,-96z"/>
        <path id="path66" class="fil3" d="M45102 189034c0,-80 -65,-144 -144,-144l-151 0c-79,0 -143,64 -143,144l0 150c0,80 64,144 143,144l151 0c79,0 144,-64 144,-144l0 -150z"/>
        <g>
         <path id="path68" class="fil3" d="M41598 187868l0 -11605 6648 -2 8 11608 -6656 -1 0 0zm3320 1734c-272,0 -491,-220 -491,-491 0,-271 219,-491 491,-491 270,0 490,220 490,491 0,271 -220,491 -490,491zm-688 -14200l1376 0c53,0 96,39 96,93 0,54 -43,82 -96,82l-1376 0c-54,0 -98,-28 -98,-82 0,-54 44,-93 98,-93zm688 -695c53,0 97,43 97,96 0,54 -44,98 -97,98 -54,0 -98,-44 -98,-98 0,-53 44,-96 98,-96zm2942 -400l-5892 0c-484,0 -860,397 -860,881l-1 14485c0,483 377,837 861,837l5892 0c483,0 876,-365 876,-848l0 -14478c0,-483 -393,-877 -876,-877l0 0zm0 0l0 0 0 0z"/>
        </g>
       </g>
      </g>
      <polygon class="fil7" points="69985,55288 69985,20072 14823,20072 14823,55288 "/>
     </g>
    </g>
   </g>
  </g>
  <g>
   <g id="g10_0">
    <g id="g12_1">
     <g id="g14_2">
      <g>
      </g>
      <g style="clip-path:url(#id1)">
       <g>
        <path id="path22_3" class="fil0" d="M57013 -4805l-4738 0 0 -24859c0,-323 -252,-584 -574,-584l-40698 0c-323,0 -593,261 -593,584l0 24859 -5027 0c-97,0 -184,79 -184,175l0 220c0,96 87,174 184,174l51630 0c97,0 166,-78 166,-174l0 -220c0,-96 -69,-175 -166,-175z"/>
        <path id="path24_4" class="fil0" d="M12127 -3098l38406 0c5242,0 6656,-963 6656,-963l-51718 0c0,0 1413,963 6656,963z"/>
        <path id="path26_5" class="fil1" d="M31198 -29723c218,0 394,177 394,395 0,217 -176,394 -394,394 -217,0 -394,-177 -394,-394 0,-218 177,-395 394,-395z"/>
        <polygon id="path28_6" class="fil2" points="12631,-6630 49766,-6630 49766,-28131 12631,-28131 "/>
        <path id="path30_7" class="fil3" d="M72165 -3098l38407 0c5242,0 6655,-963 6655,-963l-51718 0c0,0 1414,963 6656,963z"/>
        <path id="path32_8" class="fil3" d="M109773 -6645l-37135 0 0 -21501 37135 0 0 21501zm-18536 -23078c217,0 394,177 394,395 0,217 -177,394 -394,394 -218,0 -394,-177 -394,-394 0,-218 176,-395 394,-395zm25815 24918l-4739 0 0 -24859c0,-323 -252,-584 -574,-584l-40698 0c-322,0 -593,261 -593,584l0 24859 -5027 0c-96,0 -184,79 -184,175l0 220c0,96 88,174 184,174l51631 0c97,0 166,-78 166,-174l0 -220c0,-96 -69,-175 -166,-175z"/>
        <g>
         <path id="path34_9" class="fil0" d="M54101 12668l-45806 0c-363,0 -644,323 -644,687l0 27326c0,362 281,627 644,627l18799 0 0 3372 -1 0 -2403 2139c-86,30 -148,113 -148,208 0,122 99,221 221,221l12914 1c122,0 221,-105 221,-227 0,-56 -22,-109 -57,-153l21 0 -2491 -2159 0 -3402 18730 0c363,0 670,-265 670,-627l0 -27326c0,-364 -307,-687 -670,-687l0 0zm0 0l0 0 0 0z"/>
        </g>
        <polygon id="path36_10" class="fil2" points="9403,39170 53019,39170 53019,14734 9403,14734 "/>
        <g>
         <path id="path38_11" class="fil3" d="M113977 39162l-43616 0 0 -24436 43616 0 0 24436zm1083 -26494l-45807 0c-362,0 -644,327 -644,689l0 27327c0,362 282,624 644,624l18800 0 0 3372 -2 0 -2403 2140c-86,31 -148,114 -148,210 0,121 99,221 221,221l12914 1c123,0 221,-107 221,-228 0,-56 -21,-111 -57,-155l21 0 -2491 -2156 0 -3405 18731 0c363,0 669,-262 669,-624l0 -27327c0,-362 -306,-689 -669,-689l0 0zm0 0l0 0 0 0z"/>
        </g>
        <g>
         <path id="path40_12" class="fil0" d="M22239 69379l17935 0c484,0 868,392 868,876l2 23854c0,484 -386,843 -870,843l-17935 -1c-483,0 -862,-350 -862,-834l4 -23862c0,-484 375,-876 858,-876l0 0zm0 0l0 0 0 0z"/>
        </g>
        <polygon id="path42_13" class="fil2" points="23329,71743 39093,71741 39092,92850 23329,92851 "/>
        <path id="path44_14" class="fil4" d="M31211 70494c129,0 234,105 234,234 0,129 -105,234 -234,234 -130,0 -234,-105 -234,-234 0,-129 104,-234 234,-234z"/>
        <path id="path46_15" class="fil5" d="M31211 93413c324,0 586,263 586,587 0,323 -262,586 -586,586 -324,0 -586,-263 -586,-586 0,-324 262,-587 586,-587z"/>
        <path id="path48_16" class="fil6" d="M31109 93720l204 0c95,0 172,77 172,171l0 205c0,95 -77,172 -172,172l-204 0c-95,0 -172,-77 -172,-172l0 -205c0,-94 77,-171 172,-171z"/>
        <path id="path50_17" class="fil3" d="M100050 92850l-15763 1 0 -21108 15764 -2 -1 21109zm-7881 1736c-324,0 -586,-263 -586,-586 0,-324 262,-587 586,-587 324,0 586,263 586,587 0,323 -262,586 -586,586zm0 -24092c129,0 234,105 234,234 0,129 -105,234 -234,234 -129,0 -234,-105 -234,-234 0,-129 105,-234 234,-234zm9831 -239c0,-484 -384,-877 -868,-877l-17934 0c-484,0 -858,393 -858,877l-4 23862c0,484 378,834 862,834l17934 1c484,0 871,-360 871,-843l-3 -23854z"/>
        <path id="path52_18" class="fil3" d="M92476 93898c0,-94 -77,-171 -172,-171l-226 0c-95,0 -172,77 -172,171l0 226c0,95 77,172 172,172l226 0c95,0 172,-77 172,-172l0 -226z"/>
        <g>
         <path id="path54_19" class="fil0" d="M28261 123988l5892 0c483,0 868,392 868,876l0 14477c0,484 -385,848 -868,848l-5892 0c-484,0 -860,-353 -860,-837l0 -14484c0,-484 376,-880 860,-880l0 0zm0 0l0 0 0 0z"/>
        </g>
        <path id="path56_20" class="fil5" d="M31211 138300c271,0 490,220 490,491 0,270 -219,490 -490,490 -271,0 -491,-220 -491,-490 0,-271 220,-491 491,-491z"/>
        <path id="path58_21" class="fil6" d="M31125 138556l171 0c80,0 144,65 144,144l0 171c0,80 -64,144 -144,144l-171 0c-79,0 -144,-64 -144,-144l0 -171c0,-79 65,-144 144,-144z"/>
        <g>
         <path id="path60_22" class="fil2" d="M27882 125943l6653 -3 5 11609 -6658 -1 0 -11605 0 0zm0 0l0 0 0 0z"/>
        </g>
        <path id="path62_23" class="fil4" d="M30523 125067l1376 0c53,0 97,40 97,93 0,54 -44,82 -97,82l-1376 0c-54,0 -97,-28 -97,-82 0,-53 43,-93 97,-93z"/>
        <path id="path64_24" class="fil4" d="M31211 124386c53,0 97,44 97,97 0,54 -44,97 -97,97 -54,0 -97,-43 -97,-97 0,-53 43,-97 97,-97z"/>
        <path id="path66_25" class="fil3" d="M92344 138713c0,-79 -64,-143 -143,-143l-151 0c-79,0 -144,64 -144,143l0 151c0,79 65,143 144,143l151 0c79,0 143,-64 143,-143l0 -151z"/>
        <g>
         <path id="path68_26" class="fil3" d="M88841 137548l0 -11605 6648 -3 7 11609 -6655 -1 0 0zm3319 1733c-271,0 -491,-220 -491,-490 0,-271 220,-491 491,-491 271,0 491,220 491,491 0,270 -220,490 -491,490zm-688 -14199l1376 0c54,0 97,39 97,93 0,53 -43,82 -97,82l-1376 0c-54,0 -97,-29 -97,-82 0,-54 43,-93 97,-93zm688 -696c54,0 97,44 97,97 0,54 -43,97 -97,97 -54,0 -97,-43 -97,-97 0,-53 43,-97 97,-97zm2942 -399l-5891 0c-484,0 -860,397 -860,881l-1 14484c0,484 377,838 861,838l5891 0c484,0 877,-365 877,-849l0 -14477c0,-484 -393,-877 -877,-877l0 0zm0 0l0 0 0 0z"/>
        </g>
       </g>
      </g>
      <polygon class="fil7" points="117227,54971 117227,7665 62066,7665 62066,54971 "/>
     </g>
    </g>
   </g>
  </g>
  <g>
   <g id="g10_27">
    <g id="g12_28">
     <g id="g14_29">
      <g>
      </g>
      <g style="clip-path:url(#id2)">
       <g>
        <path id="path22_30" class="fil0" d="M93941 -52781l-4739 0 0 -24858c0,-323 -252,-584 -574,-584l-40698 0c-323,0 -593,261 -593,584l0 24858 -5027 0c-97,0 -184,79 -184,175l0 220c0,96 87,174 184,174l51631 0c96,0 166,-78 166,-174l0 -220c0,-96 -70,-175 -166,-175z"/>
        <path id="path24_31" class="fil0" d="M49054 -51073l38406 0c5242,0 6656,-963 6656,-963l-51718 0c0,0 1413,963 6656,963z"/>
        <path id="path26_32" class="fil1" d="M68125 -77698c218,0 395,176 395,395 0,217 -177,394 -395,394 -217,0 -394,-177 -394,-394 0,-219 177,-395 394,-395z"/>
        <polygon id="path28_33" class="fil2" points="49558,-54605 86693,-54605 86693,-76107 49558,-76107 "/>
        <path id="path30_34" class="fil3" d="M109093 -51073l38406 0c5242,0 6655,-963 6655,-963l-51718 0c0,0 1414,963 6657,963z"/>
        <path id="path32_35" class="fil3" d="M146701 -54620l-37136 0 0 -21502 37136 0 0 21502zm-18537 -23078c218,0 394,176 394,395 0,217 -176,394 -394,394 -218,0 -394,-177 -394,-394 0,-219 176,-395 394,-395zm25815 24917l-4738 0 0 -24858c0,-323 -252,-584 -575,-584l-40698 0c-322,0 -593,261 -593,584l0 24858 -5026 0c-97,0 -185,79 -185,175l0 220c0,96 88,174 185,174l51630 0c97,0 166,-78 166,-174l0 -220c0,-96 -69,-175 -166,-175z"/>
        <g>
         <path id="path34_36" class="fil0" d="M91028 -35307l-45806 0c-362,0 -644,323 -644,686l0 27326c0,363 282,627 644,627l18800 0 0 3372 -2 0 -2403 2140c-86,29 -148,112 -148,208 0,121 99,221 221,221l12914 0c122,0 222,-105 222,-226 0,-57 -23,-109 -58,-153l21 0 -2491 -2160 0 -3402 18730 0c363,0 670,-264 670,-627l0 -27326c0,-363 -307,-686 -670,-686l0 0zm0 0l0 0 0 0z"/>
        </g>
        <polygon id="path36_37" class="fil2" points="46330,-8806 89946,-8806 89946,-33241 46330,-33241 "/>
        <g>
         <path id="path38_38" class="fil3" d="M150905 -8814l-43617 0 0 -24436 43617 0 0 24436zm1082 -26493l-45807 0c-362,0 -644,326 -644,689l0 27326c0,363 282,624 644,624l18800 0 0 3372 -1 0 -2403 2141c-87,30 -149,114 -149,210 0,121 99,221 221,221l12915 0c122,0 221,-107 221,-227 0,-57 -22,-111 -58,-155l21 0 -2491 -2156 0 -3406 18731 0c363,0 669,-261 669,-624l0 -27326c0,-363 -306,-689 -669,-689l0 0zm0 0l0 0 0 0z"/>
        </g>
        <g>
         <path id="path40_39" class="fil0" d="M59167 21404l17934 0c484,0 868,392 868,876l3 23854c0,483 -387,842 -871,842l-17934 -1c-484,0 -862,-349 -862,-833l4 -23862c0,-484 374,-876 858,-876l0 0zm0 0l0 0 0 0z"/>
        </g>
        <polygon id="path42_40" class="fil2" points="60256,23768 76020,23766 76019,44875 60256,44875 "/>
        <path id="path44_41" class="fil4" d="M68138 22518c129,0 234,105 234,235 0,129 -105,234 -234,234 -129,0 -234,-105 -234,-234 0,-130 105,-235 234,-235z"/>
        <path id="path46_42" class="fil5" d="M68138 45438c324,0 586,262 586,586 0,324 -262,586 -586,586 -324,0 -586,-262 -586,-586 0,-324 262,-586 586,-586z"/>
        <path id="path48_43" class="fil6" d="M68036 45744l204 0c95,0 172,77 172,172l0 204c0,95 -77,172 -172,172l-204 0c-95,0 -172,-77 -172,-172l0 -204c0,-95 77,-172 172,-172z"/>
        <path id="path50_44" class="fil3" d="M136977 44875l-15763 0 0 -21107 15764 -2 -1 21109zm-7881 1735c-323,0 -586,-262 -586,-586 0,-324 263,-586 586,-586 324,0 586,262 586,586 0,324 -262,586 -586,586zm0 -24092c129,0 235,105 235,235 0,129 -106,234 -235,234 -129,0 -234,-105 -234,-234 0,-130 105,-235 234,-235zm9831 -239c0,-484 -384,-876 -867,-876l-17935 0c-484,0 -858,392 -858,876l-4 23863c0,483 378,833 862,833l17935 1c483,0 870,-359 870,-842l-3 -23855z"/>
        <path id="path52_45" class="fil3" d="M129403 45923c0,-95 -77,-172 -172,-172l-226 0c-94,0 -171,77 -171,172l0 226c0,94 77,171 171,171l226 0c95,0 172,-77 172,-171l0 -226z"/>
        <g>
         <path id="path54_46" class="fil0" d="M65188 76013l5892 0c484,0 868,392 868,875l0 14478c0,483 -384,847 -868,847l-5892 0c-484,0 -860,-353 -860,-836l1 -14485c0,-483 375,-879 859,-879l0 0zm0 0l0 0 0 0z"/>
        </g>
        <path id="path56_47" class="fil5" d="M68138 90324c271,0 491,220 491,491 0,271 -220,491 -491,491 -271,0 -491,-220 -491,-491 0,-271 220,-491 491,-491z"/>
        <path id="path58_48" class="fil6" d="M68052 90581l172 0c79,0 144,64 144,144l0 171c0,79 -65,144 -144,144l-172 0c-79,0 -143,-65 -143,-144l0 -171c0,-80 64,-144 143,-144z"/>
        <g>
         <path id="path60_49" class="fil2" d="M64809 77968l6653 -3 5 11608 -6658 -1 0 -11604 0 0zm0 0l0 0 0 0z"/>
        </g>
        <path id="path62_50" class="fil4" d="M67450 77091l1376 0c54,0 97,40 97,94 0,53 -43,82 -97,82l-1376 0c-54,0 -97,-29 -97,-82 0,-54 43,-94 97,-94z"/>
        <path id="path64_51" class="fil4" d="M68138 76411c54,0 97,43 97,96 0,54 -43,98 -97,98 -53,0 -97,-44 -97,-98 0,-53 44,-96 97,-96z"/>
        <path id="path66_52" class="fil3" d="M129271 90738c0,-80 -64,-144 -143,-144l-151 0c-79,0 -143,64 -143,144l0 150c0,80 64,144 143,144l151 0c79,0 143,-64 143,-144l0 -150z"/>
        <g>
         <path id="path68_53" class="fil3" d="M125768 89572l0 -11604 6648 -3 8 11608 -6656 -1 0 0zm3320 1734c-272,0 -491,-220 -491,-491 0,-271 219,-491 491,-491 270,0 490,220 490,491 0,271 -220,491 -490,491zm-688 -14200l1375 0c54,0 97,39 97,93 0,54 -43,82 -97,82l-1375 0c-54,0 -98,-28 -98,-82 0,-54 44,-93 98,-93zm688 -695c53,0 96,43 96,96 0,54 -43,98 -96,98 -54,0 -98,-44 -98,-98 0,-53 44,-96 98,-96zm2942 -400l-5892 0c-484,0 -860,397 -860,881l-1 14485c0,483 377,837 861,837l5892 0c483,0 876,-365 876,-848l0 -14478c0,-483 -393,-877 -876,-877l0 0zm0 0l0 0 0 0z"/>
        </g>
       </g>
      </g>
      <polygon class="fil7" points="98993,7071 98993,53474 141722,53474 141722,7071 "/>
     </g>
    </g>
   </g>
  </g>
  <g>
   <g id="g10_54">
    <g id="g12_55">
     <g id="g14_56">
      <g>
      </g>
      <g style="clip-path:url(#id3)">
       <g>
        <path id="path22_57" class="fil0" d="M-24054 -97556l-4739 0 0 -24858c0,-323 -252,-585 -574,-585l-40698 0c-322,0 -593,262 -593,585l0 24858 -5027 0c-96,0 -184,79 -184,175l0 220c0,96 88,174 184,174l51631 0c97,0 166,-78 166,-174l0 -220c0,-96 -69,-175 -166,-175z"/>
        <path id="path24_58" class="fil0" d="M-68941 -95848l38407 0c5241,0 6655,-963 6655,-963l-51718 0c0,0 1414,963 6656,963z"/>
        <path id="path26_59" class="fil1" d="M-49869 -122473c217,0 394,176 394,394 0,218 -177,394 -394,394 -218,0 -394,-176 -394,-394 0,-218 176,-394 394,-394z"/>
        <polygon id="path28_60" class="fil2" points="-68437,-99380 -31302,-99380 -31302,-120882 -68437,-120882 "/>
        <path id="path30_61" class="fil3" d="M-8902 -95848l38406 0c5242,0 6656,-963 6656,-963l-51718 0c0,0 1413,963 6656,963z"/>
        <path id="path32_62" class="fil3" d="M28706 -99395l-37136 0 0 -21502 37136 0 0 21502zm-18537 -23078c218,0 394,176 394,394 0,218 -176,394 -394,394 -217,0 -394,-176 -394,-394 0,-218 176,-394 394,-394zm25816 24917l-4739 0 0 -24858c0,-323 -252,-585 -574,-585l-40698 0c-323,0 -593,262 -593,585l0 24858 -5027 0c-97,0 -184,79 -184,175l0 220c0,96 87,174 184,174l51631 0c96,0 165,-78 165,-174l0 -220c0,-96 -69,-175 -165,-175z"/>
        <g>
         <path id="path34_63" class="fil0" d="M-26966 -80082l-45806 0c-363,0 -645,323 -645,686l0 27326c0,363 282,627 645,627l18799 0 0 3372 -1 0 -2403 2139c-87,30 -149,113 -149,209 0,121 99,221 221,221l12914 0c123,0 222,-105 222,-226 0,-57 -22,-110 -58,-153l21 0 -2490 -2160 0 -3402 18730 0c363,0 669,-264 669,-627l0 -27326c0,-363 -306,-686 -669,-686l0 0zm0 0l0 0 0 0z"/>
        </g>
        <polygon id="path36_64" class="fil2" points="-71665,-53581 -28048,-53581 -28048,-78017 -71665,-78017 "/>
        <g>
         <path id="path38_65" class="fil3" d="M32910 -53589l-43617 0 0 -24436 43617 0 0 24436zm1082 -26493l-45806 0c-363,0 -645,326 -645,689l0 27326c0,363 282,624 645,624l18799 0 0 3372 -1 0 -2403 2141c-86,30 -149,114 -149,210 0,121 99,221 222,221l12914 0c122,0 221,-107 221,-228 0,-56 -22,-110 -57,-154l21 0 -2491 -2156 0 -3406 18730 0c363,0 670,-261 670,-624l0 -27326c0,-363 -307,-689 -670,-689l0 0zm0 0l0 0 0 0z"/>
        </g>
        <g>
         <path id="path40_66" class="fil0" d="M-58828 -23371l17934 0c484,0 868,392 868,875l3 23854c0,484 -387,843 -871,843l-17934 -1c-484,0 -862,-349 -862,-833l4 -23863c0,-483 374,-875 858,-875l0 0zm0 0l0 0 0 0z"/>
        </g>
        <polygon id="path42_67" class="fil2" points="-57739,-21007 -41974,-21009 -41976,100 -57739,100 "/>
        <path id="path44_68" class="fil4" d="M-49857 -22257c130,0 235,105 235,235 0,129 -105,234 -235,234 -129,0 -234,-105 -234,-234 0,-130 105,-235 234,-235z"/>
        <path id="path46_69" class="fil5" d="M-49857 663c324,0 586,262 586,586 0,324 -262,586 -586,586 -323,0 -586,-262 -586,-586 0,-324 263,-586 586,-586z"/>
        <path id="path48_70" class="fil6" d="M-49959 969l205 0c95,0 171,77 171,172l0 204c0,95 -77,172 -171,172l-205 0c-95,0 -172,-77 -172,-172l0 -204c0,-95 77,-172 172,-172z"/>
        <path id="path50_71" class="fil3" d="M18982 100l-15763 0 0 -21107 15765 -2 -2 21109zm-7880 1735c-324,0 -586,-262 -586,-586 0,-324 262,-586 586,-586 323,0 585,262 585,586 0,324 -262,586 -585,586zm0 -24092c129,0 234,105 234,235 0,129 -105,234 -234,234 -130,0 -235,-105 -235,-234 0,-130 105,-235 235,-235zm9830 -239c0,-484 -384,-876 -867,-876l-17935 0c-484,0 -858,392 -858,876l-4 23863c0,483 378,833 862,833l17935 1c483,0 870,-359 870,-843l-3 -23854z"/>
        <path id="path52_72" class="fil3" d="M11408 1148c0,-95 -77,-172 -172,-172l-226 0c-94,0 -171,77 -171,172l0 226c0,94 77,171 171,171l226 0c95,0 172,-77 172,-171l0 -226z"/>
        <g>
         <path id="path54_73" class="fil0" d="M-52806 31238l5891 0c484,0 869,392 869,875l0 14477c0,484 -385,848 -869,848l-5891 0c-484,0 -861,-353 -861,-837l1 -14484c0,-483 376,-879 860,-879l0 0zm0 0l0 0 0 0z"/>
        </g>
        <path id="path56_74" class="fil5" d="M-49857 45549c271,0 491,220 491,491 0,271 -220,490 -491,490 -271,0 -490,-219 -490,-490 0,-271 219,-491 490,-491z"/>
        <path id="path58_75" class="fil6" d="M-49942 45806l171 0c79,0 144,64 144,143l0 172c0,79 -65,144 -144,144l-171 0c-80,0 -144,-65 -144,-144l0 -172c0,-79 64,-143 144,-143z"/>
        <g>
         <path id="path60_76" class="fil2" d="M-53186 33192l6653 -2 5 11608 -6658 -1 0 -11605 0 0zm0 0l0 0 0 0z"/>
        </g>
        <path id="path62_77" class="fil4" d="M-50545 32316l1376 0c54,0 97,40 97,93 0,54 -43,83 -97,83l-1376 0c-53,0 -97,-29 -97,-83 0,-53 44,-93 97,-93z"/>
        <path id="path64_78" class="fil4" d="M-49857 31636c54,0 97,43 97,96 0,54 -43,98 -97,98 -53,0 -97,-44 -97,-98 0,-53 44,-96 97,-96z"/>
        <path id="path66_79" class="fil3" d="M11277 45962c0,-79 -65,-143 -144,-143l-151 0c-79,0 -143,64 -143,143l0 151c0,79 64,144 143,144l151 0c79,0 144,-65 144,-144l0 -151z"/>
        <g>
         <path id="path68_80" class="fil3" d="M7773 44797l0 -11605 6648 -2 8 11608 -6656 -1 0 0zm3320 1733c-271,0 -491,-219 -491,-490 0,-271 220,-491 491,-491 270,0 490,220 490,491 0,271 -220,490 -490,490zm-688 -14199l1376 0c53,0 97,39 97,93 0,54 -44,82 -97,82l-1376 0c-54,0 -98,-28 -98,-82 0,-54 44,-93 98,-93zm688 -695c53,0 97,43 97,96 0,54 -44,98 -97,98 -54,0 -97,-44 -97,-98 0,-53 43,-96 97,-96zm2942 -400l-5892 0c-484,0 -860,397 -860,881l-1 14484c0,484 377,838 861,838l5892 0c483,0 876,-365 876,-849l0 -14477c0,-483 -393,-877 -876,-877l0 0zm0 0l0 0 0 0z"/>
        </g>
       </g>
      </g>
      <polygon class="fil7" points="5961,47439 36160,47439 36160,27708 5961,27708 "/>
     </g>
    </g>
   </g>
  </g>
 </g>
</svg>
