<?xml version="1.0" encoding="UTF-8"?>
<!DOCTYPE svg PUBLIC "-//W3C//DTD SVG 1.1//EN" "http://www.w3.org/Graphics/SVG/1.1/DTD/svg11.dtd">
<!-- Creator: CorelDRAW 2021 (64-Bit) -->
<svg xmlns="http://www.w3.org/2000/svg" xml:space="preserve" width="1431px" height="237px" version="1.1" style="shape-rendering:geometricPrecision; text-rendering:geometricPrecision; image-rendering:optimizeQuality; fill-rule:evenodd; clip-rule:evenodd"
viewBox="0 0 143100 23740"
 xmlns:xlink="http://www.w3.org/1999/xlink"
 xmlns:xodm="http://www.corel.com/coreldraw/odm/2003">
 <defs>
  <style type="text/css">
   <![CDATA[
    .fil0 {fill:#1aaee4}
    .fil1 {fill:white;fill-rule:nonzero}
   ]]>
  </style>
 </defs>
 <g id="Capa_x0020_1">
  <metadata id="CorelCorpID_0Corel-Layer"/>
  <g id="_2383240294576">
   <polygon class="fil0" points="-85,21 143015,21 143015,23766 -85,23766 "/>
   <path class="fil1" d="M9791 9934l0 5053c0,102 23,178 68,230 45,52 125,93 242,127l0 160 -2080 0 0 -160c116,-34 196,-75 241,-127 45,-52 69,-128 69,-230l0 -5053 -2060 0c-97,0 -172,21 -224,66 -51,44 -95,125 -126,244l-160 0 0 -1720 160 0c35,118 78,198 128,243 52,45 125,67 222,67l5575 0c100,0 176,-22 228,-67 52,-45 95,-125 127,-243l160 0 0 1720 -160 0c-32,-119 -75,-200 -127,-244 -52,-45 -128,-66 -228,-66l-2055 0zm8853 2660l-3840 0 0 2398c0,98 23,173 70,227 47,55 127,95 240,125l0 160 -2080 0 0 -160c117,-34 197,-75 242,-127 45,-52 68,-127 68,-225l0 -5647c0,-98 -23,-173 -68,-225 -45,-51 -125,-95 -242,-126l0 -160 2080 0 0 160c-117,30 -197,70 -242,125 -45,53 -68,128 -68,226l0 2149 3840 0 0 -2149c0,-98 -23,-173 -68,-226 -45,-55 -125,-95 -242,-125l0 -160 2080 0 0 160c-117,31 -197,75 -242,126 -45,52 -68,127 -68,225l0 5647c0,98 23,173 68,225 45,52 125,93 242,127l0 160 -2080 0 0 -160c113,-30 193,-70 240,-125 47,-54 70,-129 70,-227l0 -2398zm4738 -20l0 1830 4278 0c99,0 174,-24 225,-69 52,-45 95,-125 127,-241l160 0 0 1720 -160 0c-32,-117 -75,-197 -127,-242 -51,-45 -126,-68 -225,-68l-6048 0 0 -160c117,-34 197,-75 242,-127 45,-52 68,-128 68,-230l0 -5637c0,-101 -23,-178 -68,-230 -45,-51 -125,-95 -242,-126l0 -160 5928 0c99,0 174,-24 225,-69 52,-46 95,-126 127,-241l160 0 0 1720 -160 0c-32,-115 -75,-195 -127,-242 -51,-45 -126,-68 -223,-68l-4160 0 0 1580 2700 0c97,0 172,-24 223,-69 52,-45 95,-125 127,-241l160 0 0 1680 -160 0c-32,-114 -75,-194 -127,-240 -51,-47 -126,-70 -223,-70l-2700 0zm14258 530l-1648 0c-100,0 -177,23 -227,68 -50,45 -91,125 -125,242l-160 0 0 -1550 160 0c34,120 74,201 125,245 50,43 125,65 227,65l3158 0 0 160c-115,31 -195,75 -241,126 -45,52 -69,129 -69,230l0 1367c0,102 22,178 67,230 45,52 125,93 243,127l0 120c-1265,726 -2493,1090 -3680,1090 -1078,0 -1956,-257 -2636,-769 -855,-645 -1284,-1541 -1284,-2690 0,-1068 380,-1920 1142,-2551 723,-600 1683,-900 2880,-900 380,0 740,35 1077,105 336,70 720,186 1148,351 222,89 380,132 473,132 69,0 149,-37 240,-112l140 74 -785 1596 -141 -73c-4,-107 -19,-183 -44,-230 -26,-48 -85,-105 -176,-173 -199,-150 -490,-277 -874,-382 -385,-105 -748,-158 -1090,-158 -696,0 -1275,195 -1733,586 -518,445 -777,1030 -777,1759 0,705 254,1273 759,1708 463,398 1073,597 1830,597 370,0 733,-44 1091,-129 359,-85 669,-200 930,-348l0 -913zm4419 -320l0 2208c0,98 23,173 70,227 46,55 126,95 240,125l0 160 -2080 0 0 -160c116,-34 196,-75 241,-127 45,-52 69,-127 69,-225l0 -5642c0,-101 -24,-178 -69,-230 -45,-51 -125,-95 -241,-126l0 -160 4173 0c508,0 912,30 1210,88 298,58 558,162 780,308 257,170 448,400 577,690 120,280 180,580 180,900 0,1090 -605,1727 -1814,1914l1295 1835c227,321 394,528 500,621 107,92 235,144 389,154l0 160 -2412 0 0 -160c165,-27 248,-85 248,-175 0,-59 -76,-200 -230,-425l-1358 -1960 -1768 0zm0 -1100l2248 0c332,0 567,-10 703,-30 137,-19 264,-60 377,-122 248,-133 372,-375 372,-723 0,-349 -124,-590 -372,-724 -117,-65 -242,-106 -373,-125 -132,-18 -369,-26 -707,-26l-2248 0 0 1750zm11176 2110l-3006 0 -454 941c-62,132 -93,234 -93,309 0,145 110,245 328,300l0 160 -2205 0 0 -160c130,-27 230,-72 298,-137 69,-65 147,-192 234,-380l2451 -5120c79,-163 117,-293 117,-392 0,-150 -93,-256 -283,-321l0 -160 2363 0 0 160c-193,55 -288,151 -288,288 0,93 30,202 91,322l2537 5135c108,218 202,366 283,446 82,80 190,132 327,159l0 160 -2460 0 0 -160c215,-37 322,-137 322,-304 0,-70 -34,-171 -99,-305l-463 -941zm-417 -910l-1070 -2355 -1090 2355 2160 0zm5462 -90l0 2198c0,98 23,173 70,227 47,55 127,95 240,125l0 160 -2080 0 0 -160c117,-34 197,-75 242,-127 45,-52 68,-127 68,-225l0 -5642c0,-101 -23,-178 -68,-230 -45,-51 -125,-95 -242,-126l0 -160 4162 0c485,0 870,33 1155,98 285,65 536,177 755,337 225,165 400,383 528,653 127,280 190,577 190,888 0,450 -120,844 -362,1184 -208,288 -483,495 -826,616 -344,122 -824,184 -1439,184l-2393 0zm0 -1100l2225 0c443,0 755,-47 933,-142 115,-62 207,-160 277,-295 70,-135 105,-283 105,-447 0,-158 -35,-305 -105,-440 -70,-135 -162,-233 -277,-295 -175,-95 -486,-141 -933,-141l-2225 0 0 1760zm11492 900l-3840 0 0 2398c0,98 23,173 70,227 46,55 126,95 240,125l0 160 -2080 0 0 -160c116,-34 196,-75 241,-127 45,-52 69,-127 69,-225l0 -5647c0,-98 -24,-173 -69,-225 -45,-51 -125,-95 -241,-126l0 -160 2080 0 0 160c-117,30 -197,70 -242,125 -45,53 -68,128 -68,226l0 2149 3840 0 0 -2149c0,-98 -24,-173 -69,-226 -45,-55 -125,-95 -241,-125l0 -160 2079 0 0 160c-116,31 -196,75 -241,126 -45,52 -68,127 -68,225l0 5647c0,98 23,173 68,225 45,52 125,93 241,127l0 160 -2079 0 0 -160c113,-30 193,-70 240,-125 46,-54 70,-129 70,-227l0 -2398zm3278 2393l0 -5642c0,-98 -24,-173 -69,-225 -45,-51 -124,-95 -241,-126l0 -160 2080 0 0 160c-117,30 -197,70 -242,125 -45,53 -68,128 -68,226l0 5642c0,102 23,178 70,232 46,55 126,95 240,125l0 160 -2080 0 0 -160c117,-34 196,-75 241,-127 45,-52 69,-128 69,-230zm9426 -1768l930 1390 -126 88c-92,-85 -167,-127 -225,-127 -59,0 -224,77 -494,234 -560,321 -1031,540 -1415,651 -383,112 -838,169 -1366,169 -1052,0 -1915,-250 -2590,-749 -397,-290 -710,-650 -938,-1080 -264,-493 -396,-1035 -396,-1630 0,-808 237,-1510 709,-2106 710,-897 1783,-1345 3220,-1345 528,0 981,55 1360,166 376,110 850,329 1416,654 270,153 435,228 494,228 58,0 133,-42 225,-127l126 89 -930 1391 -131 -88c6,-52 10,-95 10,-132 0,-93 -40,-181 -122,-265 -82,-83 -227,-183 -437,-300 -576,-325 -1188,-486 -1833,-486 -763,0 -1372,191 -1825,573 -535,447 -802,1030 -802,1752 0,721 267,1305 802,1751 453,382 1062,574 1825,574 645,0 1257,-164 1833,-489 210,-116 355,-216 437,-300 82,-83 122,-171 122,-266 0,-35 -4,-79 -10,-127l131 -93zm6199 1185l4093 0c102,0 178,-24 230,-69 52,-45 95,-125 127,-241l160 0 0 1720 -160 0c-32,-117 -75,-197 -127,-242 -52,-45 -128,-68 -230,-68l-5863 0 0 -160c116,-34 196,-75 241,-127 45,-52 69,-128 69,-230l0 -5637c0,-101 -24,-178 -69,-230 -45,-51 -125,-95 -241,-126l0 -160 2080 0 0 160c-117,30 -197,70 -242,125 -45,53 -68,130 -68,231l0 5054zm10531 -610l-3006 0 -454 941c-61,132 -93,234 -93,309 0,145 110,245 328,300l0 160 -2205 0 0 -160c130,-27 230,-72 299,-137 68,-65 146,-192 233,-380l2452 -5120c78,-163 116,-293 116,-392 0,-150 -93,-256 -283,-321l0 -160 2363 0 0 160c-193,55 -288,151 -288,288 0,93 30,202 92,322l2536 5135c109,218 202,366 284,446 81,80 190,132 326,159l0 160 -2460 0 0 -160c215,-37 322,-137 322,-304 0,-70 -33,-171 -98,-305l-464 -941zm-416 -910l-1070 -2355 -1090 2355 2160 0zm8081 -2074l-1528 3845c-88,195 -132,319 -132,372 0,148 120,255 362,317l0 160 -2142 0 0 -160c219,-42 329,-154 329,-332 0,-48 -47,-193 -137,-435l-1910 -4915c-95,-243 -180,-408 -257,-495 -76,-87 -188,-143 -335,-173l0 -160 2310 0 0 160c-205,45 -306,141 -306,288 0,75 25,182 78,322l1323 3520 1427 -3540c62,-152 93,-254 93,-302 0,-150 -110,-247 -328,-288l0 -160 2423 0 0 160c-220,58 -332,165 -332,316 0,54 29,150 84,294l1353 3520 1315 -3462c69,-172 104,-300 104,-385 0,-143 -119,-238 -352,-283l0 -160 2288 0 0 160c-163,45 -275,103 -336,175 -62,71 -144,236 -246,493l-1908 4915c-91,235 -136,392 -136,468 0,160 115,260 346,299l0 160 -2171 0 0 -160c226,-37 341,-145 341,-327 0,-62 -52,-208 -151,-440l-1469 -3767zm9935 1899l0 2278c0,100 23,177 68,230 47,52 127,93 242,127l0 160 -2080 0 0 -160c113,-34 194,-75 240,-127 47,-53 70,-130 70,-230l0 -2278 -2155 -3029c-185,-260 -330,-433 -436,-523 -105,-90 -232,-143 -379,-163l0 -160 2637 0 0 160c-218,35 -329,136 -329,301 0,59 67,187 202,385l1200 1792 1242 -1792c133,-191 200,-321 200,-390 0,-73 -29,-138 -87,-191 -60,-54 -138,-89 -240,-105l0 -160 2575 0 0 160c-147,20 -273,73 -378,163 -107,90 -252,263 -437,523l-2155 3029zm5198 -135l0 1830 4279 0c98,0 173,-24 225,-69 51,-45 95,-125 126,-241l160 0 0 1720 -160 0c-31,-117 -75,-197 -126,-242 -52,-45 -127,-68 -225,-68l-6049 0 0 -160c117,-34 197,-75 242,-127 45,-52 68,-128 68,-230l0 -5637c0,-101 -23,-178 -68,-230 -45,-51 -125,-95 -242,-126l0 -160 5929 0c98,0 173,-24 225,-69 51,-46 95,-126 126,-241l160 0 0 1720 -160 0c-31,-115 -75,-195 -126,-242 -52,-45 -127,-68 -224,-68l-4160 0 0 1580 2700 0c97,0 172,-24 224,-69 51,-45 95,-125 126,-241l160 0 0 1680 -160 0c-31,-114 -75,-194 -126,-240 -52,-47 -127,-70 -224,-70l-2700 0zm7599 210l0 2208c0,98 23,173 70,227 46,55 126,95 240,125l0 160 -2080 0 0 -160c116,-34 196,-75 241,-127 45,-52 69,-127 69,-225l0 -5642c0,-101 -24,-178 -69,-230 -45,-51 -125,-95 -241,-126l0 -160 4173 0c508,0 912,30 1210,88 298,58 558,162 780,308 257,170 448,400 577,690 120,280 180,580 180,900 0,1090 -605,1727 -1814,1914l1295 1835c227,321 394,528 500,621 107,92 235,144 388,154l0 160 -2411 0 0 -160c165,-27 248,-85 248,-175 0,-59 -76,-200 -230,-425l-1358 -1960 -1768 0zm0 -1100l2248 0c332,0 567,-10 703,-30 137,-19 264,-60 377,-122 248,-133 372,-375 372,-723 0,-349 -124,-590 -372,-724 -117,-65 -242,-106 -373,-125 -132,-18 -369,-26 -707,-26l-2248 0 0 1750z"/>
  </g>
 </g>
</svg>
