<?xml version="1.0" encoding="UTF-8"?>
<svg xmlns="http://www.w3.org/2000/svg" xmlns:xlink="http://www.w3.org/1999/xlink" width="368.64pt" height="296.18pt" viewBox="0 0 368.64 296.18" version="1.1">
<defs>
<clipPath id="clip1">
  <path d="M 0 0 L 368.640625 0 L 368.640625 246 L 0 246 Z M 0 0 "/>
</clipPath>
<clipPath id="clip2">
  <path d="M 97 278 L 271 278 L 271 296.179688 L 97 296.179688 Z M 97 278 "/>
</clipPath>
</defs>
<g id="surface1">
<g clip-path="url(#clip1)" clip-rule="nonzero">
<path style=" stroke:none;fill-rule:evenodd;fill:#4381A6;fill-opacity:1;" d="M 350.390625 18.246094 L 18.25 18.246094 L 18.25 227.75 L 350.390625 227.75 Z M 9.125 -0.00390625 L 359.515625 -0.00390625 C 364.550781 -0.00390625 368.640625 4.085938 368.640625 9.121094 L 368.640625 236.875 C 368.640625 241.910156 364.550781 245.996094 359.515625 245.996094 L 9.125 245.996094 C 4.085938 245.996094 0 241.910156 0 236.875 L 0 9.121094 C 0 4.085938 4.085938 -0.00390625 9.125 -0.00390625 "/>
</g>
<g clip-path="url(#clip2)" clip-rule="nonzero">
<path style=" stroke:none;fill-rule:nonzero;fill:#4381A6;fill-opacity:1;" d="M 101.535156 296.179688 C 99.417969 296.179688 97.699219 293.398438 97.699219 289.972656 C 121.332031 286.632813 122.585938 278.0625 124.125 278.0625 L 244.515625 278.0625 C 246.054688 278.0625 247.308594 286.632813 270.941406 289.972656 C 270.941406 293.398438 269.222656 296.179688 267.101563 296.179688 L 101.535156 296.179688 "/>
</g>
<path style=" stroke:none;fill-rule:nonzero;fill:#4381A6;fill-opacity:1;" d="M 143.617188 242.804688 C 143.617188 240.683594 161.84375 238.964844 184.320313 238.964844 C 206.796875 238.964844 225.023438 240.683594 225.023438 242.804688 L 225.023438 288.886719 C 225.023438 291.003906 206.796875 292.726563 184.320313 292.726563 C 161.84375 292.726563 143.617188 291.003906 143.617188 288.886719 L 143.617188 242.804688 "/>
<path style=" stroke:none;fill-rule:evenodd;fill:#4381A6;fill-opacity:1;" d="M 176.277344 215.574219 C 176.277344 211.132813 179.878906 207.53125 184.320313 207.53125 C 188.761719 207.53125 192.363281 211.132813 192.363281 215.574219 C 192.363281 220.019531 188.761719 223.621094 184.320313 223.621094 C 179.878906 223.621094 176.277344 220.019531 176.277344 215.574219 Z M 7.964844 192.1875 L 7.964844 238.964844 C 130.734375 242.890625 238.957031 243.039063 361.726563 238.964844 L 361.726563 192.1875 L 7.964844 192.1875 "/>
<path style=" stroke:none;fill-rule:evenodd;fill:#4381A6;fill-opacity:1;" d="M 50.339844 160.589844 L 318.300781 160.589844 L 318.300781 152.910156 L 50.339844 152.910156 Z M 50.339844 145.984375 L 221.421875 145.984375 L 221.421875 138.304688 L 50.339844 138.304688 Z M 140.5625 106.257813 C 139.382813 106.226563 138.414063 105.90625 137.667969 105.289063 C 136.929688 104.675781 136.433594 103.84375 136.183594 102.789063 C 135.9375 101.734375 135.804688 99.832031 135.796875 97.066406 C 135.78125 94.304688 135.671875 92.316406 135.480469 91.097656 C 135.292969 89.882813 134.867188 88.878906 134.222656 88.074219 C 133.578125 87.28125 132.769531 86.714844 131.785156 86.378906 C 131.109375 86.125 130.015625 86.007813 128.515625 86.007813 L 127.226563 86.007813 L 127.226563 89.625 L 127.941406 89.625 C 129.394531 89.625 130.378906 89.828125 130.875 90.230469 C 131.378906 90.640625 131.675781 91.355469 131.785156 92.386719 C 131.863281 92.976563 131.894531 94.761719 131.894531 97.757813 C 131.894531 101.058594 132.257813 103.402344 132.980469 104.796875 C 133.703125 106.1875 134.949219 107.304688 136.71875 108.144531 C 135.363281 108.71875 134.316406 109.515625 133.578125 110.527344 C 132.847656 111.550781 132.351563 112.917969 132.109375 114.617188 C 131.964844 115.648438 131.894531 118.085938 131.894531 121.925781 C 131.894531 123.9375 131.636719 125.234375 131.117188 125.808594 C 130.589844 126.382813 129.535156 126.671875 127.941406 126.671875 L 127.226563 126.671875 L 127.226563 130.289063 L 128.515625 130.289063 C 129.835938 130.289063 130.789063 130.203125 131.371094 130.03125 C 132.226563 129.789063 132.933594 129.433594 133.492188 128.960938 C 134.042969 128.496094 134.507813 127.878906 134.886719 127.097656 C 135.261719 126.320313 135.515625 125.28125 135.65625 123.976563 C 135.734375 123.160156 135.78125 121.476563 135.796875 118.902344 C 135.804688 116.339844 135.9375 114.53125 136.183594 113.476563 C 136.433594 112.433594 136.929688 111.597656 137.667969 110.984375 C 138.414063 110.363281 139.382813 110.039063 140.5625 110.015625 Z M 126.976563 110.023438 L 126.976563 106.15625 L 104.601563 96.710938 L 104.601563 100.832031 L 122.320313 108.113281 L 104.601563 115.460938 L 104.601563 119.585938 Z M 98.703125 125.613281 L 102.023438 125.613281 L 92.253906 90.6875 L 88.914063 90.6875 Z M 63.933594 110.023438 L 86.308594 119.585938 L 86.308594 115.460938 L 68.566406 108.113281 L 86.308594 100.832031 L 86.308594 96.710938 L 63.933594 106.15625 Z M 50.339844 106.257813 L 50.339844 110.015625 C 51.519531 110.039063 52.484375 110.363281 53.234375 110.984375 C 53.972656 111.597656 54.46875 112.433594 54.71875 113.492188 C 54.964844 114.554688 55.089844 116.464844 55.105469 119.226563 C 55.121094 121.996094 55.230469 123.984375 55.417969 125.195313 C 55.609375 126.414063 56.03125 127.414063 56.675781 128.207031 C 57.324219 128.992188 58.132813 129.566406 59.117188 129.921875 C 59.792969 130.164063 60.886719 130.289063 62.386719 130.289063 L 63.675781 130.289063 L 63.675781 126.671875 L 62.960938 126.671875 C 61.507813 126.671875 60.523438 126.460938 60.027344 126.050781 C 59.523438 125.636719 59.21875 124.902344 59.09375 123.859375 C 59.027344 123.292969 59.003906 121.507813 59.003906 118.519531 C 59.003906 115.214844 58.621094 112.832031 57.863281 111.386719 C 57.101563 109.929688 55.875 108.851563 54.183594 108.144531 C 55.617188 107.453125 56.660156 106.667969 57.332031 105.769531 C 58 104.882813 58.46875 103.617188 58.746094 101.972656 C 58.917969 100.910156 59.003906 98.371094 59.003906 94.34375 C 59.003906 92.347656 59.265625 91.0625 59.785156 90.488281 C 60.3125 89.910156 61.363281 89.625 62.960938 89.625 L 63.675781 89.625 L 63.675781 86.007813 L 62.386719 86.007813 C 61.066406 86.007813 60.113281 86.085938 59.53125 86.234375 C 58.675781 86.480469 57.96875 86.839844 57.410156 87.304688 C 56.859375 87.777344 56.394531 88.40625 56.015625 89.183594 C 55.640625 89.972656 55.386719 91.007813 55.246094 92.300781 C 55.167969 93.109375 55.121094 94.800781 55.105469 97.363281 C 55.089844 99.925781 54.964844 101.742188 54.71875 102.804688 C 54.46875 103.859375 53.972656 104.695313 53.234375 105.296875 C 52.484375 105.910156 51.519531 106.226563 50.339844 106.257813 Z M 50.339844 175.195313 L 258.082031 175.195313 L 258.082031 167.515625 L 50.339844 167.515625 Z M 340.449219 75.742188 L 340.449219 185.460938 L 28.191406 185.460938 L 28.191406 75.742188 L 340.449219 75.742188 "/>
<path style=" stroke:none;fill-rule:evenodd;fill:#4381A6;fill-opacity:1;" d="M 292.199219 43.84375 C 290.769531 43.84375 289.609375 45.003906 289.609375 46.4375 L 289.609375 57.574219 C 289.609375 59.007813 290.769531 60.167969 292.199219 60.167969 L 303.339844 60.167969 C 304.769531 60.167969 305.929688 59.007813 305.929688 57.574219 L 305.929688 46.4375 C 305.929688 45.003906 304.769531 43.84375 303.339844 43.84375 Z M 314.179688 43.84375 C 312.75 43.84375 311.589844 45.003906 311.589844 46.4375 L 311.589844 57.574219 C 311.589844 59.007813 312.75 60.167969 314.179688 60.167969 L 325.320313 60.167969 C 326.753906 60.167969 327.914063 59.007813 327.914063 57.574219 L 327.914063 46.4375 C 327.914063 45.003906 326.753906 43.84375 325.320313 43.84375 Z M 32.109375 33.964844 L 336.53125 33.964844 C 338.683594 33.964844 340.449219 35.726563 340.449219 37.882813 L 340.449219 69.472656 L 28.191406 69.472656 L 28.191406 37.882813 C 28.191406 35.726563 29.953125 33.964844 32.109375 33.964844 "/>
</g>
</svg>
