<?xml version="1.0" encoding="UTF-8"?>
<!DOCTYPE svg PUBLIC "-//W3C//DTD SVG 1.1//EN" "http://www.w3.org/Graphics/SVG/1.1/DTD/svg11.dtd">
<!-- Creator: CorelDRAW 2021 (64-Bit) -->
<svg xmlns="http://www.w3.org/2000/svg" xml:space="preserve" width="272px" height="334px" version="1.1" style="shape-rendering:geometricPrecision; text-rendering:geometricPrecision; image-rendering:optimizeQuality; fill-rule:evenodd; clip-rule:evenodd"
viewBox="0 0 27200 33419"
 xmlns:xlink="http://www.w3.org/1999/xlink"
 xmlns:xodm="http://www.corel.com/coreldraw/odm/2003">
 <defs>
  <style type="text/css">
   <![CDATA[
    .fil0 {fill:#fff}
   ]]>
  </style>
 </defs>
 <g id="Capa_x0020_1">
  <metadata id="CorelCorpID_0Corel-Layer"/>
  <g id="_1187042367040">
   <path class="fil0" d="M17841 18874c-96,-70 -446,-496 -477,-613 120,-32 162,-110 258,-185l1787 -1451 351 433c58,68 77,73 126,146l-1251 1033c-160,135 -647,560 -794,637zm-16531 14350c0,103 -41,272 103,272l3544 0c110,0 672,-905 736,-1002 242,-361 465,-680 703,-1036l5964 -8793c371,-556 668,-1195 677,-1949 27,-2310 -2,-4641 -2,-6954 217,145 465,519 656,707 239,235 425,499 665,733l1532 1672c168,201 535,556 658,739 -463,875 -70,1241 511,1909 -87,130 -133,132 -246,231l-1356 1132c-343,267 -583,592 -259,1010 83,107 178,210 267,312l1053 1264c510,630 1068,1242 1564,1879l652 779c186,231 310,380 643,380 152,0 233,-42 328,-115 82,-63 157,-132 241,-202l5317 -4431c169,-142 315,-262 480,-406 79,-69 162,-138 241,-202 267,-216 1130,-816 1130,-1120 0,-442 -176,-523 -424,-837l-3407 -4091c-126,-153 -322,-184 -532,-184 -195,0 -424,253 -560,360l-762 636c-252,220 -518,457 -791,640 -36,-136 -356,-472 -468,-589 -416,-435 -929,-466 -1441,-195 -208,-310 -470,-604 -708,-894l-2500 -3124c-122,-153 -234,-307 -363,-455l-2501 -3123c-142,-205 -161,-289 -364,-453 -152,-124 -295,-208 -504,-283 -226,-82 -363,55 -559,152 -1750,866 -2691,3201 -3003,5074 -107,639 -98,883 -98,1538l1 5625c4,455 -277,755 -467,1135l-556 1080c-91,182 -185,334 -284,533 -187,374 -360,682 -546,1057 -98,199 -183,332 -284,534 -99,198 -180,359 -282,535 -94,161 -175,343 -263,522 -96,194 -189,343 -284,533 -202,405 -862,1720 -1097,2107l-1391 2665c-91,181 -173,363 -280,539 -132,218 -1084,2044 -1084,2154z"/>
   <path class="fil0" d="M15523 33496l3818 0c220,0 62,-444 -36,-612 -62,-105 -109,-194 -168,-308l-1059 -1907c-115,-200 -223,-410 -341,-614 -660,-1141 -1464,-2736 -2105,-3791 -432,-711 -1006,-1878 -1410,-2543 -80,-132 -277,-553 -369,-620 -108,79 -350,508 -443,648 -145,219 -286,429 -436,654 -152,226 -276,431 -430,661 -152,229 -282,442 -429,661 -292,437 -563,873 -868,1315 -116,169 -88,208 15,356l1337 1935c78,118 137,210 222,323 85,114 141,209 221,325l1561 2256c105,159 811,1261 920,1261z"/>
   <path class="fil0" d="M8025 3026c0,825 351,1785 1008,2298 789,616 1154,735 2230,735 353,0 850,-171 1103,-294 201,-99 465,-276 627,-430 38,-35 50,-45 89,-81 5,-5 13,-12 18,-16l406 -481c457,-685 639,-1543 441,-2371 -128,-535 -417,-1066 -800,-1449 -849,-849 -2193,-1103 -3326,-614 -171,74 -335,163 -486,264 -78,51 -142,106 -212,163 -675,553 -1098,1382 -1098,2276z"/>
   <path class="fil0" d="M-87 13387c0,360 583,1367 784,1772 236,477 399,491 842,298l4850 -2036c109,-43 255,-126 375,-136l213 -1253c206,-964 496,-1836 934,-2712 60,-119 226,-409 250,-500l-2613 1375c-1172,580 -2529,1372 -3681,1942 -94,47 -167,82 -250,125l-1315 696c-175,105 -389,166 -389,429z"/>
  </g>
 </g>
</svg>
